# xmcd
#
# Track frame offsets:
#	150
#	32361
#	48104
#	64241
#	77326
#	94464
#	110599
#	126950
#	149116
#	162271
#	176746
#	202070
#	216216
#	242857
#	255665
#	271176
#
# Disc length: 4376 seconds
#
# Revision: 0
# Processed by: cddbd v1.5.1PL0 Copyright (c) Steve Scherf et al.
# Submitted via: audiograbber 1.83.01
#
DISCID=ed111610
DTITLE=Rare Earth - One world+Willie remembers
DYEAR=2004
DGENRE=
TTITLE0=What'd I say
TTITLE1=If I die
TTITLE2=The seed
TTITLE3=I just want to celebrate
TTITLE4=Someone to love
TTITLE5=Any man can be a fool
TTITLE6=The road
TTITLE7=Under God's light
TTITLE8=Good time Sally
TTITLE9=Every now and then we got to go on down to Miami
TTITLE10=Think of the children
TTITLE11=Gotta get myself back home
TTITLE12=Come with your lady
TTITLE13=Would you like to come along
TTITLE14=We're gonna have a good time
TTITLE15=I couldn't believe what happened last night
EXTD=
EXTT0=
EXTT1=
EXTT2=
EXTT3=
EXTT4=
EXTT5=
EXTT6=
EXTT7=
EXTT8=
EXTT9=
EXTT10=
EXTT11=
EXTT12=
EXTT13=
EXTT14=
EXTT15=
PLAYORDER=
